<?xml version="1.0" encoding="utf-8"?>
<!-- Generator: Adobe Illustrator 16.0.4, SVG Export Plug-In . SVG Version: 6.00 Build 0)  -->
<!DOCTYPE svg PUBLIC "-//W3C//DTD SVG 1.1//EN" "http://www.w3.org/Graphics/SVG/1.1/DTD/svg11.dtd">
<svg version="1.1" id="Layer_1" xmlns="http://www.w3.org/2000/svg" xmlns:xlink="http://www.w3.org/1999/xlink" x="0px" y="0px"
	 width="464px" height="428px" viewBox="165.5 30.5 464 428" enable-background="new 165.5 30.5 464 428" xml:space="preserve">
<g>
	<path fill="#BC3A00" d="M552.672,95.961c4.896,0,8.812-3.917,8.812-8.812s-3.916-8.813-8.812-8.813
		c-21.542,0-39.168,17.625-39.168,39.168c0,25.949,21.053,46.512,46.512,46.512c30.846,0,56.305-25.459,56.305-56.304
		c0-37.699-30.355-68.054-68.055-68.054H244.224l0,0l0,0c-38.189,0.49-68.544,30.845-68.544,68.544
		c0,30.845,25.459,56.304,56.304,56.304c25.949,0,46.512-21.053,46.512-46.512c0-21.542-17.625-39.168-39.168-39.168
		c-4.896,0-8.813,3.917-8.813,8.812s3.917,8.813,8.813,8.813c12.24,0,22.032,9.792,22.032,22.032
		c0,16.157-13.219,29.376-29.376,29.376c-21.542,0-39.168-17.626-39.168-39.168c0-27.907,23.011-50.918,50.918-50.918
		c36.23,0,65.606,29.376,65.606,65.606c0,44.064-28.397,66.585-84.211,66.585c-4.896,0-8.812,3.917-8.812,8.812
		c0,4.896,3.917,8.813,8.812,8.813c0,0,0,0,0.49,0h39.168v234.029c0,4.896,3.917,8.812,8.813,8.812s8.812-3.916,8.812-8.812V206.611
		h31.824V440.64c0,4.896,3.917,8.813,8.813,8.813c4.896,0,8.812-3.917,8.812-8.813V206.611h31.824V440.64
		c0,4.896,3.917,8.813,8.812,8.813s8.813-3.917,8.813-8.813V206.611h31.824V440.64c0,4.896,3.917,8.813,8.813,8.813
		c4.896,0,8.812-3.917,8.812-8.813V206.611h31.824V440.64c0,4.896,3.916,8.813,8.812,8.813c4.896,0,8.812-3.917,8.812-8.813V206.611
		h31.824V440.64c0,4.896,3.917,8.813,8.812,8.813c4.896,0,8.813-3.917,8.813-8.813V206.611h39.168c4.896,0,8.812-3.917,8.812-8.813
		s-3.917-8.813-8.812-8.813c-55.814,0-84.212-22.521-84.212-66.585c0-36.23,29.377-65.606,65.606-65.606
		c27.907,0,50.919,23.011,50.919,50.918c0,21.542-17.626,39.168-39.168,39.168c-16.157,0-29.376-13.219-29.376-29.376
		C530.64,105.753,540.432,95.961,552.672,95.961z M465.033,122.89c0,20.074,5.386,48.47,32.314,66.585H294.653
		c26.928-18.115,32.313-46.512,32.313-66.585c0-26.928-13.219-50.429-32.803-65.606h204.653
		C478.253,72.461,465.033,95.961,465.033,122.89z"/>
</g>
</svg>
