<svg xmlns="http://www.w3.org/2000/svg" xmlns:xlink="http://www.w3.org/1999/xlink" version="1.1" x="0px" y="0px" viewBox="0 0 100 125" style="enable-background:new 0 0 100 100;" xml:space="preserve"><style type="text/css">
	.st0{fill:#001689;stroke:#001689;stroke-width:0.6;stroke-miterlimit:10;}
	.st1{fill:#FFFFFF;}
	.st2{fill:#001689;stroke:#001689;stroke-width:0.6;stroke-linejoin:round;stroke-miterlimit:10;}
	.st3{fill:none;}
	.st4{fill:#001689;}
</style><g><path d="M82,19.6c1,0,1.8-0.8,1.8-1.8s-0.8-1.8-1.8-1.8c-4.4,0-8,3.6-8,8c0,5.3,4.3,9.5,9.5,9.5c6.3,0,11.5-5.2,11.5-11.5   c0-7.7-6.2-13.9-13.9-13.9H19c0,0,0,0,0,0c0,0,0,0,0,0C11.2,8.2,5,14.4,5,22.1c0,6.3,5.2,11.5,11.5,11.5c5.3,0,9.5-4.3,9.5-9.5   c0-4.4-3.6-8-8-8c-1,0-1.8,0.8-1.8,1.8s0.8,1.8,1.8,1.8c2.5,0,4.5,2,4.5,4.5c0,3.3-2.7,6-6,6c-4.4,0-8-3.6-8-8   c0-5.7,4.7-10.4,10.4-10.4c7.4,0,13.4,6,13.4,13.4c0,9-5.8,13.6-17.2,13.6c-1,0-1.8,0.8-1.8,1.8s0.8,1.8,1.8,1.8c0,0,0,0,0.1,0h8   v47.8c0,1,0.8,1.8,1.8,1.8s1.8-0.8,1.8-1.8V42.2h6.5v47.8c0,1,0.8,1.8,1.8,1.8s1.8-0.8,1.8-1.8V42.2h6.5v47.8c0,1,0.8,1.8,1.8,1.8   s1.8-0.8,1.8-1.8V42.2h6.5v47.8c0,1,0.8,1.8,1.8,1.8s1.8-0.8,1.8-1.8V42.2h6.5v47.8c0,1,0.8,1.8,1.8,1.8c1,0,1.8-0.8,1.8-1.8V42.2   h6.5v47.8c0,1,0.8,1.8,1.8,1.8c1,0,1.8-0.8,1.8-1.8V42.2h8c1,0,1.8-0.8,1.8-1.8s-0.8-1.8-1.8-1.8c-11.4,0-17.2-4.6-17.2-13.6   c0-7.4,6-13.4,13.4-13.4c5.7,0,10.4,4.7,10.4,10.4c0,4.4-3.6,8-8,8c-3.3,0-6-2.7-6-6C77.5,21.6,79.5,19.6,82,19.6z M64.1,25.1   c0,4.1,1.1,9.9,6.6,13.6H29.3c5.5-3.7,6.6-9.5,6.6-13.6c0-5.5-2.7-10.3-6.7-13.4h41.8C66.8,14.8,64.1,19.6,64.1,25.1z"/></g><text x="0" y="115" fill="#000000" font-size="5px" font-weight="bold" font-family="'Helvetica Neue', Helvetica, Arial-Unicode, Arial, Sans-serif">Created by Luka Purgar</text><text x="0" y="120" fill="#000000" font-size="5px" font-weight="bold" font-family="'Helvetica Neue', Helvetica, Arial-Unicode, Arial, Sans-serif">from the Noun Project</text></svg>